<svg id="Layer_1" xmlns="http://www.w3.org/2000/svg" viewBox="0 0 27 25"><style>.st0{fill:#f04e23}.st1{fill:#fff}</style><title>teamstormer-logo</title><g id="Symbols"><g id="Topbar" transform="translate(-30 -18)"><g transform="translate(30 18)" id="logo"><g id="teamstormer-logo"><path id="Shape" class="st0" d="M21 18.6c-.3 0-.6-.1-.9-.4s-.4-.5-.4-.9c0-.7.6-1.2 1.3-1.2.8 0 1.6-.3 2.1-.8s.9-1.3.9-2.1c0-1.2-.7-2.2-1.8-2.7-.5-.2-.8-.8-.7-1.3.1-.3.1-.6.1-1-.1-3.2-2.7-5.7-5.8-5.7-2.2 0-4.2 1.2-5.2 3.2-.3.5-.9.8-1.5.7-.5-.2-.9-.3-1.4-.3-1.8 0-3.5.9-4.5 2.5s-.9 3.5 0 5.1 2.6 2.5 4.4 2.5c.3 0 .6.1.9.4.2.2.4.6.4.9 0 .7-.6 1.2-1.3 1.2C5 18.8 2.4 17.3 1 15S-.4 9.7 1 7.3s4-3.8 6.7-3.7c.4 0 .8 0 1.1.1 2.1-3 5.8-4.4 9.3-3.4s6 4.2 6.1 7.9v.5c1.5 1 2.4 2.7 2.4 4.5-.1 3.1-2.6 5.4-5.6 5.4z"/><path id="Shape_13_copy" class="st1" d="M12.4 24.2c-.2 0-.5-.1-.7-.2-.3-.2-.5-.5-.6-.8s0-.7.2-.9l2.3-3.5h-1.2c-.5 0-.9-.3-1.1-.7-.2-.4-.2-.9.1-1.3l3.5-5c.4-.6 1.2-.7 1.8-.3.3.2.5.5.5.8.1.3 0 .7-.2.9l-2.1 3H16c.5 0 .9.3 1.1.7.2.4.2.9 0 1.3l-3.5 5.4c-.4.4-.8.6-1.2.6z"/></g></g></g></g></svg>