<?xml version="1.0" encoding="utf-8"?>
<!-- Generator: Adobe Illustrator 20.0.0, SVG Export Plug-In . SVG Version: 6.00 Build 0)  -->
<svg version="1.1" id="Layer_1" xmlns="http://www.w3.org/2000/svg" xmlns:xlink="http://www.w3.org/1999/xlink" x="0px" y="0px"
	 viewBox="0 0 97.5 97" style="enable-background:new 0 0 97.5 97;" xml:space="preserve">
<style type="text/css">
	.st0{fill:#38D359;}
</style>
<g>
	<path class="st0" d="M48.5,97c-8.1,0-16.3-0.8-24.2-2.4c-11.3-2.2-19.9-10.8-22-22c-3.1-16-3.1-32.3,0-48.4
		C4.5,13,13.1,4.4,24.2,2.2C32.4,0.7,40.5,0,48.5,0c7.9,0,16,0.8,24.1,2.3c11.2,2.2,19.9,10.9,22,22c3.2,16.1,3.2,32.4,0,48.5
		C92.4,84,83.8,92.6,72.7,94.7C64.3,96.2,56.4,97,48.5,97z M48.5,3c-7.7,0-15.7,0.7-23.7,2.2C14.9,7.1,7.2,14.8,5.2,24.8
		c-3,15.7-3,31.6,0,47.3c1.9,9.9,9.6,17.6,19.5,19.6c7.8,1.5,15.8,2.3,23.7,2.3c7.8,0,15.5-0.7,23.7-2.2c9.9-1.9,17.6-9.6,19.5-19.6
		c3.1-15.7,3.1-31.6,0-47.3C89.7,14.9,82,7.2,72,5.2C64.1,3.7,56.1,3,48.5,3z"/>
</g>
<g>
	<g>
		<path class="st0" d="M39.5,67.4L39.5,67.4c-0.4,0-0.8-0.2-1.1-0.4L21.5,50c-0.6-0.6-0.6-1.5,0-2.1s1.5-0.6,2.1,0l15.9,15.9
			L73.4,30c0.6-0.6,1.5-0.6,2.1,0c0.6,0.6,0.6,1.5,0,2.1L40.6,67C40.3,67.2,39.9,67.4,39.5,67.4z"/>
	</g>
</g>
</svg>
