<svg id="::_logo" xmlns="http://www.w3.org/2000/svg" viewBox="0 0 200 31.8"><style>.st0{fill:#232947}.st1{font-family:&amp;apos;Roboto-Regular&amp;apos;}.st2{font-size:23.5849px}.st3{font-family:&amp;apos;Roboto-Medium&amp;apos;}.st4{fill:#f04e23}</style><text transform="matrix(1.0084 0 0 1 48.794 23.824)" class="st0 st1 st2">Team</text><text transform="matrix(1.0084 0 0 1 114.103 23.824)" class="st0 st3 st2">Stormer</text><g id="sygnet"><path class="st4" d="M32.1 11.5v-.7c-.1-3.6-1.9-6.9-4.9-8.9-5.1-3.5-12-2.2-15.5 2.9-.5-.1-1-.2-1.6-.2-4.3-.1-8 2.6-9.5 6.4 0 .1 0 .1-.1.2-.1.2-.1.4-.2.6-.1.2-.1.3-.1.5 0 .1 0 .2-.1.3-.1.3-.1.5-.1.8V15c.2 5.5 4.7 9.7 10.2 9.6.9 0 1.6-.7 1.7-1.6 0-.9-.8-1.6-1.7-1.6h-.4c-3.5-.1-6.4-3-6.4-6.5v-.2c0-1.8.8-3.4 1.9-4.6 1.2-1.2 3-2 4.9-1.9.5 0 .9 0 1.3.1.9.2 1.7.6 2.5 1.2.8.5 1.8.3 2.3-.5.5-.8.3-1.8-.5-2.3l-.9-.6c1.5-1.8 3.7-2.9 6-2.8 4.2 0 7.6 3.3 7.7 7.5 0 .4-.1.9-.1 1.3-.1.7.3 1.5 1 1.7 1.4.6 2.3 2 2.3 3.5 0 2.2-1.8 3.9-4 3.9-.9 0-1.6.7-1.7 1.6 0 .9.8 1.6 1.7 1.6 4 .1 7.3-3 7.5-7 0-2.4-1.2-4.6-3.2-5.9z"/><path id="Shape_13_copy" class="st0" d="M16.4 31.8c-.3 0-.6-.1-.9-.2-.8-.5-1-1.5-.5-2.2l3.1-4.6h-1.6c-.6 0-1.2-.3-1.5-.9-.3-.5-.2-1.2.1-1.7l4.7-6.5c.5-.8 1.6-.9 2.3-.4.7.5.9 1.4.5 2.2 0 0 0 .1-.1.1l-2.8 4h1.4c.6 0 1.2.3 1.5.9.3.5.3 1.2-.1 1.7l-4.7 7.2c-.3.2-.8.4-1.4.4z"/></g></svg>